<svg width="916" height="350" viewBox="0 0 916 350" fill="none" xmlns="http://www.w3.org/2000/svg">
<path d="M914.926 28.9497L909.08 73.1334L900.198 140.477V140.702L898.624 151.944C896.994 163.805 895.532 175.778 894.015 187.696C892.384 199.95 890.473 212.205 888.843 224.459C887.213 236.32 885.751 248.237 884.233 260.211C882.941 269.542 881.479 278.93 880.186 288.317C878.893 297.536 877.881 306.699 876.588 315.918C875.296 324.743 872.654 332.894 866.245 339.527C861.748 344.249 856.239 347.06 850 347.903C837.689 349.477 825.322 350.095 812.899 348.353C800.588 346.61 790.976 340.258 784.343 330.083C779.79 323.113 776.192 315.524 772.538 307.935L752.358 266L705.42 168.358C705.42 168.358 705.42 168.302 705.363 168.302C699.236 155.654 686.532 156.441 684.565 170.719L683.384 179.039L683.328 179.657C682.035 188.539 680.686 197.477 679.449 206.415C678.831 210.687 678.325 214.959 677.707 219.175L672.985 252.453C672.141 257.85 671.354 263.134 670.568 268.53C669.612 275.107 668.712 281.628 667.701 288.205C662.473 324.912 646.115 349.14 585.517 349.14H511.258C450.042 349.14 426.826 349.14 403.666 349.083C394.897 349.083 386.071 349.027 377.415 347.903C345.71 343.799 323.281 324.631 316.423 295.119C314.344 286.125 314.006 277.074 315.355 267.968C317.379 254.308 319.234 240.592 321.258 226.932C323.281 213.61 325.417 200.287 327.441 187.021C329.071 176.003 330.533 165.042 332.163 154.024C333.006 148.628 334.805 136.204 336.66 124.062C337.166 120.746 337.616 117.486 338.122 114.338C338.122 114.225 338.178 114.169 338.178 114.057C342.338 90.5594 338.796 88.6482 318.728 88.6482H185.503C130.639 88.6482 86.1184 133.113 86.1184 188.033V202.761C86.1184 236.039 113.101 263.021 146.379 263.021H174.823C187.527 263.021 198.432 253.802 200.624 241.323L202.423 230.755C204.391 219.625 191.63 219.4 190.787 219.4H154.249C139.465 219.4 127.379 207.37 127.379 192.53V185.728C127.379 155.598 151.831 131.145 181.962 131.145H270.104C282.864 131.145 292.589 142.669 290.453 155.204L279.435 219.344L270.441 271.397C262.74 316.424 223.728 349.252 178.083 349.252H133.843C59.9793 349.252 0 289.385 0 215.409V191.237C0 85.6127 85.6125 0 191.237 0H558.87C571.633 0 581.526 11.355 579.727 24.003L574.05 64.589L573.656 67.1186C573.038 70.2103 571.239 75.5506 566.348 80.16C561.456 84.7133 553.474 88.5358 540.433 88.5358H438.293C437.169 88.7044 436.045 88.9293 434.977 89.1541C428.793 90.5032 424.634 94.7754 422.779 100.622C421.879 103.32 421.148 106.018 420.53 108.829C419.855 111.977 419.406 115.125 419.181 118.329C419.125 118.835 419.068 119.341 419.068 119.79C419.068 125.299 423.566 129.909 429.187 129.909H536.048C551.282 129.909 563.032 143.344 560.894 158.465L556.51 189.551C554.767 201.974 544.199 211.137 531.663 211.137H414.571C409.512 211.137 405.24 214.903 404.566 219.793L403.835 225.021C403.779 225.471 403.666 225.864 403.61 226.314C403.216 229.406 402.71 232.385 402.317 235.421V235.645C401.699 240.255 401.586 244.921 402.823 249.642C404.453 255.601 408.051 261.503 417.944 262.122C419.574 262.178 421.261 262.122 422.891 262.122H565.28C578.378 262.122 589.508 252.453 591.363 239.524V239.299C593.387 225.077 595.635 210.912 597.659 196.69C599.289 184.941 600.638 173.193 602.269 161.557C603.899 149.696 605.698 137.778 607.44 125.917C609.014 114.562 610.588 103.207 612.162 91.7961C613.511 82.0713 614.917 72.3464 616.266 62.6215C617.446 53.7959 618.514 44.9143 619.863 36.145C621.044 28.1628 623.292 20.5178 628.183 13.8846C633.635 6.35209 641.168 2.41717 650.331 1.23669C663.766 -0.562124 677.313 -0.168646 690.804 1.2929C703.284 2.69822 713.458 8.5444 719.642 19.6184C726.162 31.1421 732.289 42.8906 738.192 54.7515L738.473 55.3699L768.659 116.474L770.065 119.341C777.541 134.518 785.017 149.696 792.494 164.873C792.494 164.873 792.494 164.929 792.55 164.929C793.955 167.796 795.417 170.607 796.71 173.474C796.71 173.474 796.71 173.474 796.71 173.53C800.645 181.512 812.787 180.725 813.967 171.562L815.541 159.308V159.252L820.713 119.79L820.769 119.509L820.825 119.003C821.725 112.82 822.624 106.524 823.467 100.284C824.591 91.9648 825.547 83.589 826.615 75.2133L826.671 74.3701C826.671 74.1452 826.727 73.9204 826.727 73.6955V73.4707L826.784 73.0772L833.417 22.0917C835.159 9.55623 845.896 0.168632 858.6 0.168632H889.799C905.089 0.168632 916.893 13.6598 914.926 28.9497Z" fill="url(#paint0_linear_19429_7695)"/>
<defs>
<linearGradient id="paint0_linear_19429_7695" x1="0" y1="174.701" x2="915.139" y2="174.701" gradientUnits="userSpaceOnUse">
<stop stop-color="#FFDBBB"/>
<stop offset="1" stop-color="#A29CFF"/>
</linearGradient>
</defs>
</svg>
